HIERARCHY
ROOT Hips
{
	OFFSET 0.000000 0.000000 0.000000
	CHANNELS 6 Xposition Yposition Zposition Yrotation Xrotation Zrotation
	JOINT Chest
	{
		OFFSET 0.000000 -0.009281 11.569106
		CHANNELS 3 Yrotation Xrotation Zrotation
		JOINT Chest2
		{
			OFFSET -0.000000 0.016865 9.269641
			CHANNELS 3 Yrotation Xrotation Zrotation
			JOINT Chest3
			{
				OFFSET -0.000000 0.000001 8.374491
				CHANNELS 3 Yrotation Xrotation Zrotation
				JOINT Chest4
				{
					OFFSET -0.000000 0.000001 8.374493
					CHANNELS 3 Yrotation Xrotation Zrotation
					JOINT Neck
					{
						OFFSET -0.000000 0.000002 12.152554
						CHANNELS 3 Yrotation Xrotation Zrotation
						JOINT Head
						{
							OFFSET -0.000000 0.040101 7.802319
							CHANNELS 3 Yrotation Xrotation Zrotation
							End Site
							{
								OFFSET -0.000000 0.020947 14.853096
							}
						}
					}
					JOINT RightCollar
					{
						OFFSET 2.894404 0.000001 6.791374
						CHANNELS 3 Yrotation Xrotation Zrotation
						JOINT RightShoulder
						{
							OFFSET 13.574684 0.000001 0.000000
							CHANNELS 3 Yrotation Xrotation Zrotation
							JOINT RightElbow
							{
								OFFSET 23.923903 0.000002 0.000000
								CHANNELS 3 Yrotation Xrotation Zrotation
								JOINT RightWrist
								{
									OFFSET 19.846718 0.012767 0.000000
									CHANNELS 3 Yrotation Xrotation Zrotation
									End Site
									{
										OFFSET 14.973145 0.000001 0.000000
									}
								}
							}
						}
					}
					JOINT LeftCollar
					{
						OFFSET -2.894404 0.000001 6.791374
						CHANNELS 3 Yrotation Xrotation Zrotation
						JOINT LeftShoulder
						{
							OFFSET -13.574684 -0.000001 0.000000
							CHANNELS 3 Yrotation Xrotation Zrotation
							JOINT LeftElbow
							{
								OFFSET -23.923903 -0.000002 0.000000
								CHANNELS 3 Yrotation Xrotation Zrotation
								JOINT LeftWrist
								{
									OFFSET -19.846718 0.012763 0.000000
									CHANNELS 3 Yrotation Xrotation Zrotation
									End Site
									{
										OFFSET -14.973145 -0.000001 0.000000
									}
								}
							}
						}
					}
				}
			}
		}
	}
	JOINT RightHip
	{
		OFFSET 9.469263 0.004643 0.045487
		CHANNELS 3 Yrotation Xrotation Zrotation
		JOINT RightKnee
		{
			OFFSET 0.000000 0.002661 -40.478676
			CHANNELS 3 Yrotation Xrotation Zrotation
			JOINT RightAnkle
			{
				OFFSET 0.000000 0.049106 -35.224068
				CHANNELS 3 Yrotation Xrotation Zrotation
				JOINT RightToe
				{
					OFFSET -0.000001 12.539529 -6.151390
					CHANNELS 3 Yrotation Xrotation Zrotation
					End Site
					{
						OFFSET -0.000001 5.044994 -1.291870
					}
				}
			}
		}
	}
	JOINT LeftHip
	{
		OFFSET -9.469263 0.004641 0.045487
		CHANNELS 3 Yrotation Xrotation Zrotation
		JOINT LeftKnee
		{
			OFFSET 0.000000 0.002661 -40.478676
			CHANNELS 3 Yrotation Xrotation Zrotation
			JOINT LeftAnkle
			{
				OFFSET 0.000000 0.049106 -35.224068
				CHANNELS 3 Yrotation Xrotation Zrotation
				JOINT LeftToe
				{
					OFFSET -0.000001 12.539529 -6.151390
					CHANNELS 3 Yrotation Xrotation Zrotation
					End Site
					{
						OFFSET -0.000001 5.044994 -1.291870
					}
				}
			}
		}
	}
}
MOTION
Frames: 9
Frame Time: 0.016667
11.685450 8.204663 83.282387 -5.029879 -1.651973 -110.851163 -1.573555 -5.034870 7.800763 -0.599185 -2.261871 3.393790 -0.599185 -2.261872 3.393791 -0.436779 -1.699795 2.542796 4.912714 -17.653191 -7.653967 6.463645 3.487740 -12.446471 13.311567 1.361439 -14.668301 75.359294 8.155607 16.296529 0.023980 -9.800266 2.815843 -15.587199 8.353296 14.476731 -4.915604 -7.363224 -18.295162 -75.255318 2.814333 -17.928099 3.510509 2.828403 0.196310 16.994965 -11.271350 -24.947543 -1.013401 -6.826498 -3.998984 0.991256 -2.530587 -4.036045 0.673377 3.878601 1.908918 0.047965 0.045640 0.036136 -0.483128 -6.210008 0.837740 0.087815 -0.782936 -1.029642 -3.821560 1.358027 -1.391961 0.342151 -0.016313 -0.029250 
11.671920 8.202560 83.288048 -5.044214 -1.624600 -110.641517 -1.590819 -5.016147 7.827988 -0.605948 -2.254207 3.404670 -0.605948 -2.254208 3.404668 -0.441855 -1.694095 2.550940 4.919031 -17.681333 -7.663005 6.473967 3.435842 -12.460851 13.296772 1.369532 -14.695447 75.106748 8.389147 16.662253 0.425050 -8.929834 3.329939 -15.642521 8.159237 14.148581 -4.907287 -7.388331 -18.323757 -74.998756 3.049348 -18.107055 3.239598 2.752587 -0.358655 16.999356 -11.279858 -24.842501 -1.003048 -6.881666 -4.102049 0.979157 -2.458227 -4.139749 0.668583 3.853093 1.911830 0.048003 0.047357 0.039495 -0.493176 -6.168592 0.674969 0.118474 -0.806769 -1.012539 -3.928398 1.309722 -1.443175 0.332764 -0.014613 -0.032783 
11.654693 8.207283 83.294777 -5.052620 -1.592164 -110.414058 -1.608537 -4.995837 7.847148 -0.612133 -2.245912 3.411815 -0.612133 -2.245912 3.411814 -0.446514 -1.687916 2.556286 4.919917 -17.712665 -7.666934 6.476215 3.377798 -12.467653 13.274801 1.388109 -14.722825 74.853662 8.566639 17.033802 0.924556 -7.791729 3.860738 -15.777614 8.113583 13.779820 -4.920483 -7.407741 -18.340301 -74.686131 3.249141 -18.270298 2.895569 3.050084 -0.974467 17.083562 -11.421537 -24.682535 -1.001653 -6.921912 -4.206281 0.979533 -2.397133 -4.269348 0.667188 3.831020 1.914756 0.043095 0.048753 0.040829 -0.513834 -6.113047 0.467935 0.161959 -0.830959 -0.970020 -4.037460 1.249054 -1.499031 0.323965 -0.009426 -0.036332 
11.629896 8.220054 83.302368 -5.057983 -1.555410 -110.174845 -1.624386 -4.975398 7.861240 -0.617708 -2.238215 3.415902 -0.617709 -2.238216 3.415903 -0.450723 -1.682179 2.559341 4.913004 -17.748339 -7.662855 6.467067 3.311374 -12.462329 13.240424 1.405089 -14.726882 74.615678 8.689975 17.385871 1.450439 -6.534705 4.441771 -15.971001 8.226613 13.461980 -4.934764 -7.467909 -18.369797 -74.424999 3.589330 -18.447846 2.504249 3.580920 -1.675163 17.303693 -11.728915 -24.475973 -1.013875 -6.940099 -4.341575 0.992093 -2.364543 -4.422477 0.674177 3.820772 1.952232 0.033647 0.048380 0.041594 -0.541311 -6.038057 0.230851 0.206263 -0.867722 -0.893272 -4.150200 1.183052 -1.557573 0.322326 -0.004357 -0.038446 
11.597863 8.241209 83.310349 -5.055961 -1.510620 -109.923241 -1.658656 -4.964866 7.890178 -0.631425 -2.235071 3.426343 -0.631425 -2.235071 3.426343 -0.460990 -1.679907 2.567124 4.917930 -17.779886 -7.662581 6.478174 3.253242 -12.460009 13.232225 1.452116 -14.738459 74.412329 8.795779 17.730083 1.939896 -5.352480 5.106460 -16.346895 8.263786 13.225521 -4.944000 -7.464777 -18.418391 -74.221931 4.042731 -18.608217 2.122852 4.075859 -2.374374 17.639515 -11.882946 -24.306294 -1.033885 -6.939215 -4.523729 1.004980 -2.341678 -4.573241 0.694020 3.815729 2.010519 0.019150 0.043630 0.042256 -0.574784 -5.938057 -0.021264 0.247885 -0.918453 -0.790998 -4.274982 1.110766 -1.628247 0.333688 0.001551 -0.039691 
11.562208 8.266801 83.318977 -5.052185 -1.459170 -109.653462 -1.700795 -4.956256 7.917593 -0.649126 -2.231716 3.436793 -0.649126 -2.231716 3.436795 -0.474245 -1.677502 2.574902 4.929267 -17.823208 -7.658360 6.503115 3.173737 -12.448209 13.229022 1.486752 -14.747302 74.254736 8.916767 18.068760 2.409644 -4.340144 5.866988 -17.017123 8.144843 13.038124 -4.969979 -7.450515 -18.487768 -74.011056 4.568005 -18.770859 1.780196 4.384457 -3.019804 17.929380 -11.653110 -24.172297 -1.057827 -6.947824 -4.766841 1.009300 -2.292993 -4.711795 0.732278 3.803611 2.119370 0.000548 0.034269 0.043995 -0.612420 -5.819489 -0.295519 0.292964 -0.989659 -0.686080 -4.415843 1.038490 -1.731114 0.352622 0.008851 -0.040952 
11.526960 8.295270 83.328323 -5.042973 -1.399384 -109.358084 -1.743281 -4.944912 7.943215 -0.667321 -2.226690 3.448847 -0.667320 -2.226690 3.448846 -0.487874 -1.673849 2.583881 4.940785 -17.884620 -7.652075 6.530174 3.060756 -12.432509 13.217002 1.517757 -14.749479 74.143397 9.089199 18.377104 2.907121 -3.493566 6.687727 -18.064182 8.003634 12.935936 -4.957464 -7.488858 -18.543168 -73.817536 5.049472 -19.000741 1.496258 4.658562 -3.635997 18.112437 -11.210600 -24.105667 -1.077992 -6.964740 -5.093671 1.003463 -2.213664 -4.813758 0.779506 3.780920 2.220480 -0.019094 0.022761 0.044638 -0.660334 -5.683874 -0.619625 0.345249 -1.072141 -0.578653 -4.568240 0.963097 -1.808712 0.375805 0.019472 -0.041483 
11.490062 8.321307 83.337448 -5.023150 -1.337080 -109.042829 -1.781497 -4.929531 7.963475 -0.683853 -2.219935 3.460315 -0.683853 -2.219935 3.460315 -0.500270 -1.668889 2.592429 4.943067 -17.963094 -7.634313 6.545101 2.915802 -12.398778 13.195332 1.535585 -14.728396 74.063778 9.286749 18.681566 3.439495 -2.798821 7.498768 -19.405686 8.012281 12.994124 -4.958793 -7.503107 -18.561193 -73.628804 5.420104 -19.218213 1.248802 5.072107 -4.220112 18.283829 -10.850120 -24.180258 -1.092657 -6.995572 -5.478400 1.000427 -2.089509 -4.888229 0.819067 3.740151 2.317959 -0.032143 0.011222 0.048021 -0.701485 -5.532950 -0.970871 0.394116 -1.160865 -0.488649 -4.736587 0.893927 -1.851311 0.405638 0.025157 -0.042773 
11.453497 8.344667 83.346428 -5.001212 -1.272862 -108.706374 -1.826923 -4.909099 7.993568 -0.703281 -2.211215 3.476113 -0.703281 -2.211214 3.476114 -0.514833 -1.662477 2.604220 4.945012 -18.060379 -7.607409 6.563545 2.736091 -12.348344 13.181089 1.564412 -14.733077 73.994656 9.385645 18.993440 3.983699 -2.105182 8.256191 -20.898716 8.216061 13.243717 -4.959474 -7.489104 -18.593839 -73.440666 5.724714 -19.401933 0.998178 5.658930 -4.760851 18.630125 -10.648369 -24.531021 -1.098387 -7.054129 -5.874165 0.991346 -1.909105 -4.942741 0.854551 3.674266 2.400241 -0.040292 0.001200 0.052484 -0.736932 -5.378439 -1.320045 0.436915 -1.248711 -0.443309 -4.915186 0.823952 -1.882324 0.437572 0.028783 -0.046332 
